<?xml version="1.0" encoding="utf-8"?>
<!-- Generator: Adobe Illustrator 18.1.0, SVG Export Plug-In . SVG Version: 6.00 Build 0)  -->
<!DOCTYPE svg PUBLIC "-//W3C//DTD SVG 1.1//EN" "http://www.w3.org/Graphics/SVG/1.1/DTD/svg11.dtd">
<svg version="1.1" id="Layer_1" xmlns="http://www.w3.org/2000/svg" xmlns:xlink="http://www.w3.org/1999/xlink" x="0px" y="0px"
	 width="871.5px" height="104.2px" viewBox="194.5 564.8 871.5 104.2" enable-background="new 194.5 564.8 871.5 104.2"
	 xml:space="preserve">
<path fill="#00A9B7" d="M1009.7,579.1h56.3l-21.7,36.8l21.7,36.8h-56.3V579.1z"/>
<rect x="194.5" y="564.8" fill="#C7E8E8" width="832.4" height="104.2"/>
<g>
	<path fill="#00A9B7" d="M540.2,644.5h12.4c13.4,0,28.8-3.1,28.8-19.1c0-3.5-0.8-6.4-2.3-8.7l6.3,6.2c2.6,2.7,4.1,6.2,4.1,10.8
		c0,15.8-15.2,18.9-28.5,18.9h-12.6L540.2,644.5L540.2,644.5z M558.3,605.5c-1.6,0.3-3.3,0.6-5.3,0.6h-2.7v-17.8h1.4
		c6.1,0,13.2,1.6,13.6,8.6c-1.7-0.3-3.6-0.5-5.2-0.5h-1.7L558.3,605.5L558.3,605.5z M570.9,624.2c-2.4-0.6-5.3-0.8-8.4-0.8h-4.2
		v11.7c-1.4,0.1-2.9,0.1-4.4,0.1h-3.7v-19.9h4C563.5,615.3,570.5,617.2,570.9,624.2L570.9,624.2z M572.7,587.4l6.5,6.5
		c2.7,2.7,4.2,6.4,4.2,11.3c0,4.7-2,8-5.3,10.1l0.2,0.2c-2.7-3.4-7.1-5.5-12.5-6.6c6.1-1.8,9.6-5.6,9.6-12.1
		C575.4,593,574.4,589.9,572.7,587.4L572.7,587.4z M579.1,616.6l-0.2-0.2c-0.1,0-0.1-0.1-0.1-0.2L579.1,616.6L579.1,616.6z
		 M629.9,622.2l2.8,8.1h-16.6l-7.8,22.2h-10.8l-8.1-8.1h10.7l7.8-22.2H629.9z M619,590.9l5.4,15.7l-2.2,6.3h-11L619,590.9z
		 M624.2,579l7.9,7.9l24.2,65.6h-10.6l-8.1-8.1h10.7L624.2,579L624.2,579z M702.6,596.3v-11.8l8.1,8.1V604
		c-4.7-4.6-10.6-8.5-20.6-8.5c-17.1,0-23.4,15.1-23.3,24.9c0,4.2,0.9,8.9,3.2,13.1c-8.2-4.5-11.3-13.7-11.3-21.4
		c-0.1-9.7,6.2-24.6,23.1-24.6C692.1,587.4,697.9,591.5,702.6,596.3z M702.6,639.3l8.1,8.2c-5,3.6-11,6.1-20.6,6.1
		c-10.4,0-18.1-3.7-23.5-9.1l-5.6-5.6c5.2,4,12,6.5,20.7,6.6C691.7,645.5,697.5,643.1,702.6,639.3L702.6,639.3z M724.1,613.2l8.1,9
		v30.3h-10l-8.1-8.1h10V613.2z M724.1,611.2V579l8.1,8.1v15L724.1,611.2L724.1,611.2z M743.4,620.4l-7.8-8.5l30.3-32.9l8.2,8.2
		L743.4,620.4z M752.2,644.5h13.6l7.6,8.1h-13.1L752.2,644.5z M775.5,644.5h10v-24.6h3.4c14.1,0,25.2-7.2,25.2-20.5
		c0-4.8-1.2-8.7-3.2-11.8l6.2,6.2c3.2,3.2,5.1,7.8,5.1,13.9c0,13.1-11.1,20.2-25,20.2h-3.7v24.6h-10L775.5,644.5L775.5,644.5z
		 M793.5,610.4c-1.3,0.2-2.7,0.3-4.2,0.3h-3.8v-22.4h4.1c8,0,12.7,3,13.6,8.6c-1.6-0.3-3.5-0.5-5.3-0.5h-4.3L793.5,610.4
		L793.5,610.4z M853.3,622.2l2.8,8.1h-16.6l-7.8,22.2h-10.8l-8.1-8.1h10.7l7.8-22.2H853.3L853.3,622.2z M842.4,590.9l5.4,15.7
		l-2.2,6.3h-11L842.4,590.9z M847.6,579l7.9,7.9l24.2,65.6h-10.6l-8.1-8.1h10.7L847.6,579L847.6,579z M926.1,596.3v-11.8l8.1,8.1
		V604c-4.7-4.6-10.6-8.5-20.6-8.5c-17.1,0-23.4,15.1-23.3,24.9c0,4.2,0.9,8.9,3.2,13.1c-8.2-4.5-11.3-13.7-11.3-21.4
		c-0.1-9.7,6.2-24.6,23.1-24.6C915.5,587.4,921.3,591.5,926.1,596.3z M926.1,639.3l8.1,8.2c-5,3.6-11,6.1-20.6,6.1
		c-10.4,0-18.1-3.7-23.5-9.1l-5.6-5.6c5.2,4,12,6.5,20.7,6.6C915.2,645.5,920.9,643.1,926.1,639.3L926.1,639.3z M947.5,613.2l8.1,9
		v30.3h-10l-8.1-8.1h10V613.2z M947.5,611.2V579l8.1,8.1v15L947.5,611.2L947.5,611.2z M966.9,620.4l-7.8-8.5l30.3-32.9l8.2,8.2
		L966.9,620.4z M975.6,644.5h13.6l7.6,8.1h-13.1L975.6,644.5z"/>
</g>
<g>
	<path fill="#7BCCD5" d="M540.3,644.5v-65.4h9.3c14.6,0,25.8,4.6,25.8,17.8c0,6.5-3.5,10.2-9.6,12.1c9.4,1.7,15.6,6.8,15.6,16.4
		c0,16.1-15.4,19.1-28.8,19.1H540.3z M553.1,606.1c7.7,0,12.2-2.7,12.2-8.7c0-7.4-7.3-9.1-13.6-9.1h-1.4v17.8H553.1z M554.3,615.4
		h-4v19.9h3.7c10.4,0,17.1-1.3,17.1-9.7C571.1,617.1,564,615.4,554.3,615.4L554.3,615.4z M624.3,579.2l24.2,65.4h-10.7l-7.7-22.2
		h-22l-7.8,22.2h-10.7l25.1-65.4L624.3,579.2L624.3,579.2z M611.3,613.1h15.5l-7.7-22.1L611.3,613.1z M648.5,612.1
		c-0.1-13.5,10-33.9,33.5-33.9c9.2,0,16.2,2.6,20.8,6.2v11.8c-4.7-4.7-10.6-8.8-20.8-8.8c-16.9,0-23.1,15-23.1,24.6
		c0,10.6,6.2,24.2,23.1,24.2c8.7,0,16.1-3.1,20.8-7.5v10.5c-5.2,3.8-10.9,6.2-20.8,6.2C658.5,645.5,648.5,626.9,648.5,612.1
		L648.5,612.1z M724.1,579.1v32.2l28.5-32.2h13.3L735.6,612l30,32.5h-13.5L724,613.3v31.2h-10v-65.4H724.1z M785.5,620v24.5h-10
		v-65.4h13.7c15.1,0,24.9,6.2,24.9,20.4c0,13.2-11.1,20.5-25.2,20.5H785.5z M785.5,610.8h3.8c8.7,0,14.1-3.6,14.1-11.5
		c0-7.6-5.2-10.9-13.8-10.9h-4.1V610.8z M847.7,579.1l24.2,65.4h-10.7l-7.7-22.2h-22l-7.8,22.2H813l25-65.4H847.7z M834.7,613h15.5
		l-7.7-22.1L834.7,613z M871.8,612.1c-0.1-13.5,10-33.9,33.5-33.9c9.2,0,16.2,2.6,20.8,6.2v11.8c-4.7-4.7-10.6-8.8-20.8-8.8
		c-16.9,0-23.1,15-23.1,24.6c0,10.6,6.2,24.2,23.1,24.2c8.7,0,16.1-3.1,20.8-7.5v10.5c-5.2,3.8-10.9,6.2-20.8,6.2
		C881.8,645.5,871.8,626.9,871.8,612.1L871.8,612.1z M947.5,579.1v32.2l28.5-32.2h13.3L959.1,612l30,32.5h-13.5l-28.1-31.2v31.2h-10
		v-65.4H947.5z"/>
</g>
<g>
	<path fill="#00A9B7" d="M262.7,622.3l2.8,8H249l-7.8,22.1h-10.8l-8-8h10.7l7.8-22.1H262.7L262.7,622.3z M251.9,591.2l5.4,15.6
		l-2.2,6.3h-10.9L251.9,591.2L251.9,591.2z M257,579.3l7.9,7.9l24.1,65.2h-10.5l-8-8h10.7L257,579.3L257,579.3z M292.3,610.4v-31.1
		l8,8v31.4c0,5.7,1,11,3.1,15.6C295.6,630,292.3,620.4,292.3,610.4z M344.2,610.4v-31.1l8,8v31.4c0,20.9-12.7,34.9-30.6,34.9
		c-9.5,0-17.7-2.6-27.4-13.7c4.8,3.6,11.1,5.6,19.1,5.6C331.5,645.6,344.2,631.5,344.2,610.4L344.2,610.4z M356.1,644.4h11.8
		c26.4,0,42.4-9.8,42.4-32.3c0-8.3-2-14.8-5.6-19.8l5.7,5.7c5.1,5.1,7.9,12.5,7.9,22.3c0,22.3-15.9,32-42.1,32h-12L356.1,644.4
		L356.1,644.4z M374.1,635.1c-1.3,0.1-2.6,0.1-4.1,0.1h-4v-46.6h3.7c13.7,0,23.3,3.2,27.6,11.6c-5-2.5-11.6-3.6-19.4-3.6h-4v38.5
		H374.1z M430.2,644.4v-65l8,8v65h-9.9l-8-8H430.2z M461.3,633.5c-7.9-4.5-11-13.3-10.8-21.3c-0.1-9.6,6.1-24,22.9-24.1
		c8.9,0.1,15.9,3.9,19.6,10.6c-3.3-1.7-7.2-2.6-11.3-2.6c-17,0.1-23.3,14.6-23.2,24.3C458.3,624.8,459.2,629.5,461.3,633.5z
		 M502.1,594.3l2.9,2.8c5.5,5.5,9,13.2,9.5,22c0,18.5-14,33.8-33.4,34.5c-9.8-0.5-17.5-4.3-22.9-9.7l-3-2.9
		c4.6,2.8,10.5,4.5,17.6,4.6c20.3-0.3,34-15.6,33.7-34.8C506.4,604.5,504.8,598.9,502.1,594.3L502.1,594.3z"/>
</g>
<g>
	<path fill="#7BCCD5" d="M257,579.3l24.1,65h-10.7l-7.7-22.1h-21.8l-7.8,22.1h-10.7l24.9-65H257L257,579.3z M244.1,613.1h15.4
		l-7.6-21.9L244.1,613.1L244.1,613.1z M293,579.5v31.1c0,13.4,6,26.1,21,26.1c12.4,0,20.9-9.8,20.9-26.1v-31.2h9.9v31.1
		c0,21.1-12.7,35.2-30.9,35.2c-21.5,0-30.9-14.6-30.9-35.1v-31.2L293,579.5L293,579.5z M356.3,644.4v-65h11.6
		c26.6,0,42.5,9,42.5,32.8c0,22.5-16,32.3-42.4,32.3h-11.7V644.4z M366.2,635.2h4c18.9,0,29.8-6,29.8-23.7c0-17-11.3-22.9-30-22.9
		h-3.7L366.2,635.2L366.2,635.2z M430.7,579.1v65h-9.9v-65H430.7z M473.7,579.1c19.1,0.2,32.8,12.3,33.2,31.9
		c0.3,19.2-13.4,34.4-33.7,34.8c-23.1-0.2-33-18-32.8-33.4C440.3,599,450.3,579.2,473.7,579.1L473.7,579.1z M473.3,636.6
		c14.6-0.2,23.5-11.3,23.3-25.2c-0.3-14.1-9.2-23.1-22.9-23.2c-16.8,0.1-23,14.5-22.9,24.1C450.5,623.5,456.7,636.5,473.3,636.6z"/>
</g>
</svg>
