<svg xmlns="http://www.w3.org/2000/svg" width="871.5" height="104.2" viewBox="40 560.8 871.5 104.2" enable-background="new 40 560.8 871.5 104.2"><path fill="#00A9B7" d="M855.2 575.1h56.3l-21.7 36.8 21.7 36.8h-56.3v-73.6z"/><rect x="40" y="560.8" fill="#C7E8E8" width="832.4" height="104.2"/><path fill="#00A9B7" d="M385.7 640.5h12.4c13.4 0 28.8-3.1 28.8-19.1 0-3.5-.8-6.4-2.3-8.7l6.3 6.2c2.6 2.7 4.1 6.2 4.1 10.8 0 15.8-15.2 18.9-28.5 18.9h-12.6l-8.2-8.1zm18.1-39c-1.6.3-3.3.6-5.3.6h-2.7v-17.8h1.4c6.1 0 13.2 1.6 13.6 8.6-1.7-.3-3.6-.5-5.2-.5h-1.7l-.1 9.1zm12.6 18.7c-2.4-.6-5.3-.8-8.4-.8h-4.2v11.7c-1.4.1-2.9.1-4.4.1h-3.7v-19.9h4c9.3 0 16.3 1.9 16.7 8.9zm1.8-36.8l6.5 6.5c2.7 2.7 4.2 6.4 4.2 11.3 0 4.7-2 8-5.3 10.1l.2.2c-2.7-3.4-7.1-5.5-12.5-6.6 6.1-1.8 9.6-5.6 9.6-12.1 0-3.8-1-6.9-2.7-9.4zm6.4 29.2l-.2-.2c-.1 0-.1-.1-.1-.2l.3.4zm50.8 5.6l2.8 8.1h-16.6l-7.8 22.2h-10.8l-8.1-8.1h10.7l7.8-22.2h22zm-10.9-31.3l5.4 15.7-2.2 6.3h-11l7.8-22zm5.2-11.9l7.9 7.9 24.2 65.6h-10.6l-8.1-8.1h10.7l-24.1-65.4zm78.4 17.3v-11.8l8.1 8.1v11.4c-4.7-4.6-10.6-8.5-20.6-8.5-17.1 0-23.4 15.1-23.3 24.9 0 4.2.9 8.9 3.2 13.1-8.2-4.5-11.3-13.7-11.3-21.4-.1-9.7 6.2-24.6 23.1-24.6 10.3-.1 16.1 4 20.8 8.8zm0 43l8.1 8.2c-5 3.6-11 6.1-20.6 6.1-10.4 0-18.1-3.7-23.5-9.1l-5.6-5.6c5.2 4 12 6.5 20.7 6.6 10 0 15.8-2.4 20.9-6.2zm21.5-26.1l8.1 9v30.3h-10l-8.1-8.1h10v-31.2zm0-2v-32.2l8.1 8.1v15l-8.1 9.1zm19.3 9.2l-7.8-8.5 30.3-32.9 8.2 8.2-30.7 33.2zm8.8 24.1h13.6l7.6 8.1h-13.1l-8.1-8.1zm23.3 0h10v-24.6h3.4c14.1 0 25.2-7.2 25.2-20.5 0-4.8-1.2-8.7-3.2-11.8l6.2 6.2c3.2 3.2 5.1 7.8 5.1 13.9 0 13.1-11.1 20.2-25 20.2h-3.7v24.6h-10l-8-8zm18-34.1c-1.3.2-2.7.3-4.2.3h-3.8v-22.4h4.1c8 0 12.7 3 13.6 8.6-1.6-.3-3.5-.5-5.3-.5h-4.3l-.1 14zm59.8 11.8l2.8 8.1h-16.6l-7.8 22.2h-10.8l-8.1-8.1h10.7l7.8-22.2h22zm-10.9-31.3l5.4 15.7-2.2 6.3h-11l7.8-22zm5.2-11.9l7.9 7.9 24.2 65.6h-10.6l-8.1-8.1h10.7l-24.1-65.4zm78.5 17.3v-11.8l8.1 8.1v11.4c-4.7-4.6-10.6-8.5-20.6-8.5-17.1 0-23.4 15.1-23.3 24.9 0 4.2.9 8.9 3.2 13.1-8.2-4.5-11.3-13.7-11.3-21.4-.1-9.7 6.2-24.6 23.1-24.6 10.2-.1 16 4 20.8 8.8zm0 43l8.1 8.2c-5 3.6-11 6.1-20.6 6.1-10.4 0-18.1-3.7-23.5-9.1l-5.6-5.6c5.2 4 12 6.5 20.7 6.6 10 0 15.7-2.4 20.9-6.2zm21.4-26.1l8.1 9v30.3h-10l-8.1-8.1h10v-31.2zm0-2v-32.2l8.1 8.1v15l-8.1 9.1zm19.4 9.2l-7.8-8.5 30.3-32.9 8.2 8.2-30.7 33.2zm8.7 24.1h13.6l7.6 8.1h-13.1l-8.1-8.1z"/><path fill="#7BCCD5" d="M385.8 640.5v-65.4h9.3c14.6 0 25.8 4.6 25.8 17.8 0 6.5-3.5 10.2-9.6 12.1 9.4 1.7 15.6 6.8 15.6 16.4 0 16.1-15.4 19.1-28.8 19.1h-12.3zm12.8-38.4c7.7 0 12.2-2.7 12.2-8.7 0-7.4-7.3-9.1-13.6-9.1h-1.4v17.8h2.8zm1.2 9.3h-4v19.9h3.7c10.4 0 17.1-1.3 17.1-9.7 0-8.5-7.1-10.2-16.8-10.2zm70-36.2l24.2 65.4h-10.7l-7.7-22.2h-22l-7.8 22.2h-10.7l25.1-65.4h9.6zm-13 33.9h15.5l-7.7-22.1-7.8 22.1zm37.2-1c-.1-13.5 10-33.9 33.5-33.9 9.2 0 16.2 2.6 20.8 6.2v11.8c-4.7-4.7-10.6-8.8-20.8-8.8-16.9 0-23.1 15-23.1 24.6 0 10.6 6.2 24.2 23.1 24.2 8.7 0 16.1-3.1 20.8-7.5v10.5c-5.2 3.8-10.9 6.2-20.8 6.2-23.5.1-33.5-18.5-33.5-33.3zm75.6-33v32.2l28.5-32.2h13.3l-30.3 32.9 30 32.5h-13.5l-28.1-31.2v31.2h-10v-65.4h10.1zm61.4 40.9v24.5h-10v-65.4h13.7c15.1 0 24.9 6.2 24.9 20.4 0 13.2-11.1 20.5-25.2 20.5h-3.4zm0-9.2h3.8c8.7 0 14.1-3.6 14.1-11.5 0-7.6-5.2-10.9-13.8-10.9h-4.1v22.4zm62.2-31.7l24.2 65.4h-10.7l-7.7-22.2h-22l-7.8 22.2h-10.7l25-65.4h9.7zm-13 33.9h15.5l-7.7-22.1-7.8 22.1zm37.1-.9c-.1-13.5 10-33.9 33.5-33.9 9.2 0 16.2 2.6 20.8 6.2v11.8c-4.7-4.7-10.6-8.8-20.8-8.8-16.9 0-23.1 15-23.1 24.6 0 10.6 6.2 24.2 23.1 24.2 8.7 0 16.1-3.1 20.8-7.5v10.5c-5.2 3.8-10.9 6.2-20.8 6.2-23.5.1-33.5-18.5-33.5-33.3zm75.7-33v32.2l28.5-32.2h13.3l-30.2 32.9 30 32.5h-13.5l-28.1-31.2v31.2h-10v-65.4h10z"/><path fill="#00A9B7" d="M108.2 618.3l2.8 8h-16.5l-7.8 22.1h-10.8l-8-8h10.7l7.8-22.1h21.8zm-10.8-31.1l5.4 15.6-2.2 6.3h-10.9l7.7-21.9zm5.1-11.9l7.9 7.9 24.1 65.2h-10.5l-8-8h10.7l-24.2-65.1zm35.3 31.1v-31.1l8 8v31.4c0 5.7 1 11 3.1 15.6-7.8-4.3-11.1-13.9-11.1-23.9zm51.9 0v-31.1l8 8v31.4c0 20.9-12.7 34.9-30.6 34.9-9.5 0-17.7-2.6-27.4-13.7 4.8 3.6 11.1 5.6 19.1 5.6 18.2.1 30.9-14 30.9-35.1zm11.9 34h11.8c26.4 0 42.4-9.8 42.4-32.3 0-8.3-2-14.8-5.6-19.8l5.7 5.7c5.1 5.1 7.9 12.5 7.9 22.3 0 22.3-15.9 32-42.1 32h-12l-8.1-7.9zm18-9.3c-1.3.1-2.6.1-4.1.1h-4v-46.6h3.7c13.7 0 23.3 3.2 27.6 11.6-5-2.5-11.6-3.6-19.4-3.6h-4v38.5h.2zm56.1 9.3v-65l8 8v65h-9.9l-8-8h9.9zm31.1-10.9c-7.9-4.5-11-13.3-10.8-21.3-.1-9.6 6.1-24 22.9-24.1 8.9.1 15.9 3.9 19.6 10.6-3.3-1.7-7.2-2.6-11.3-2.6-17 .1-23.3 14.6-23.2 24.3-.2 4.4.7 9.1 2.8 13.1zm40.8-39.2l2.9 2.8c5.5 5.5 9 13.2 9.5 22 0 18.5-14 33.8-33.4 34.5-9.8-.5-17.5-4.3-22.9-9.7l-3-2.9c4.6 2.8 10.5 4.5 17.6 4.6 20.3-.3 34-15.6 33.7-34.8-.1-6.3-1.7-11.9-4.4-16.5z"/><path fill="#7BCCD5" d="M102.5 575.3l24.1 65h-10.7l-7.7-22.1h-21.8l-7.8 22.1h-10.7l24.9-65h9.7zm-12.9 33.8h15.4l-7.6-21.9-7.8 21.9zm48.9-33.6v31.1c0 13.4 6 26.1 21 26.1 12.4 0 20.9-9.8 20.9-26.1v-31.2h9.9v31.1c0 21.1-12.7 35.2-30.9 35.2-21.5 0-30.9-14.6-30.9-35.1v-31.2l10 .1zm63.3 64.9v-65h11.6c26.6 0 42.5 9 42.5 32.8 0 22.5-16 32.3-42.4 32.3h-11.7v-.1zm9.9-9.2h4c18.9 0 29.8-6 29.8-23.7 0-17-11.3-22.9-30-22.9h-3.7l-.1 46.6zm64.5-56.1v65h-9.9v-65h9.9zm43 0c19.1.2 32.8 12.3 33.2 31.9.3 19.2-13.4 34.4-33.7 34.8-23.1-.2-33-18-32.8-33.4-.1-13.4 9.9-33.2 33.3-33.3zm-.4 57.5c14.6-.2 23.5-11.3 23.3-25.2-.3-14.1-9.2-23.1-22.9-23.2-16.8.1-23 14.5-22.9 24.1-.3 11.2 5.9 24.2 22.5 24.3z"/><path fill="#00A9B7" d="M843.1 575.1h2.7v.9h-.8v2.8h-.9v-2.8h-.9l-.1-.9zm3 3.7v-3.7h.8l1.1 1.6 1.1-1.6h.7v3.7h-.9v-1.7l-.9 1.1-.9-1.2v1.7l-1 .1z"/></svg>